<?xml version="1.0" standalone="no"?>
<!DOCTYPE svg PUBLIC "-//W3C//DTD SVG 20010904//EN"
 "http://www.w3.org/TR/2001/REC-SVG-20010904/DTD/svg10.dtd">
<svg version="1.0" xmlns="http://www.w3.org/2000/svg"
 width="260.000000pt" height="260.000000pt" viewBox="0 0 260.000000 260.000000"
 preserveAspectRatio="xMidYMid meet">
<metadata>
Created by potrace 1.11, written by Peter Selinger 2001-2013
</metadata>
<g transform="translate(0.000000,260.000000) scale(0.100000,-0.100000)"
fill="#000000" stroke="none">
<path d="M190 2583 c-63 -23 -151 -113 -173 -177 -16 -45 -17 -144 -17 -1115
l0 -1066 24 -51 c29 -63 86 -120 151 -150 l50 -24 1075 0 1075 0 51 24 c65 30
120 85 150 150 l24 51 0 1066 c0 1219 7 1124 -89 1220 -97 96 -2 89 -1215 88
-942 0 -1066 -2 -1106 -16z m2200 -87 c49 -26 79 -55 103 -101 22 -40 22 -41
25 -922 l2 -883 -1220 0 -1220 0 0 863 c0 546 4 875 10 898 13 45 47 96 81
121 65 49 35 47 1144 45 994 -2 1042 -3 1075 -21z m-2112 -2082 c21 -15 30
-44 14 -44 -5 0 -17 9 -27 20 -21 23 -67 26 -85 5 -22 -27 -6 -49 55 -78 71
-35 87 -52 80 -92 -12 -70 -102 -89 -157 -34 -23 22 -28 33 -19 38 8 5 23 -3
41 -20 32 -33 55 -36 88 -13 45 31 24 66 -63 103 -54 24 -65 35 -65 69 0 54
86 83 138 46z m542 -119 c0 -83 -4 -135 -10 -135 -5 0 -10 5 -10 10 0 7 -6 7
-19 0 -32 -16 -60 -12 -86 15 -36 35 -36 115 1 152 25 25 43 27 87 8 15 -6 17
-1 17 39 0 25 5 46 10 46 6 0 10 -52 10 -135z m694 13 c21 -67 40 -127 43
-135 3 -7 -2 -13 -10 -13 -9 0 -21 17 -29 43 -15 42 -15 42 -63 42 -48 0 -48
0 -62 -42 -9 -25 -21 -43 -30 -43 -10 0 -12 6 -7 23 19 61 74 240 74 243 0 2
10 4 23 4 21 0 27 -12 61 -122z m106 112 c0 -5 -4 -10 -10 -10 -5 0 -10 5 -10
10 0 6 5 10 10 10 6 0 10 -4 10 -10z m210 -125 c0 -75 -4 -135 -9 -135 -5 0
-11 6 -14 13 -4 9 -7 9 -18 0 -33 -31 -95 -4 -109 47 -26 95 32 159 113 125
15 -6 17 -1 17 39 0 25 5 46 10 46 6 0 10 -52 10 -135z m-1430 90 c0 -29 4
-35 23 -36 l22 -2 -22 -4 c-22 -4 -23 -9 -23 -84 0 -72 2 -79 20 -79 11 0 20
-5 20 -11 0 -6 -14 -9 -32 -7 l-33 3 -3 88 c-2 74 -5 87 -20 88 -16 1 -16 2 1
6 12 3 17 15 17 39 0 24 5 34 15 34 10 0 15 -11 15 -35z m890 0 c0 -29 4 -35
23 -36 l22 -2 -22 -4 c-21 -4 -23 -10 -23 -80 0 -66 2 -75 20 -80 30 -8 24
-25 -7 -21 -28 3 -28 4 -33 87 -4 72 -8 85 -24 91 -19 6 -19 7 2 12 17 5 22
14 22 37 0 17 5 31 10 31 6 0 10 -16 10 -35z m-302 -45 c13 -12 22 -33 22 -50
0 -30 0 -30 -60 -30 -53 0 -60 -2 -60 -20 0 -24 34 -60 57 -60 9 0 24 7 34 16
28 25 47 12 21 -14 -29 -29 -74 -28 -108 2 -24 20 -28 31 -28 74 0 40 5 57 24
77 29 30 68 32 98 5z m194 3 c15 -13 18 -31 18 -100 0 -49 -4 -83 -10 -83 -6
0 -10 31 -10 74 0 54 -4 79 -16 90 -18 19 -19 19 -47 5 -33 -18 -37 -28 -37
-101 0 -39 -4 -68 -10 -68 -6 0 -10 39 -10 96 0 86 2 95 18 90 9 -3 24 -1 32
4 23 15 51 12 72 -7z m958 6 c0 -4 -6 -9 -14 -12 -9 -3 -12 -15 -9 -31 9 -43
-21 -76 -67 -76 -36 0 -60 -14 -46 -27 3 -3 28 -8 55 -11 57 -5 87 -29 76 -61
-16 -50 -156 -51 -163 -1 -2 14 3 29 13 36 10 8 12 14 6 19 -15 9 -14 42 2 48
10 4 10 7 0 18 -21 22 -16 76 8 93 22 15 139 19 139 5z m125 5 c22 -9 45 -57
45 -94 0 -103 -113 -139 -148 -48 -34 88 26 171 103 142z m-1755 -83 c0 -72 2
-80 20 -86 13 -4 31 0 45 9 23 15 25 23 25 86 0 40 4 70 10 70 6 0 10 -38 10
-95 0 -52 -4 -95 -9 -95 -5 0 -11 5 -13 11 -3 9 -9 9 -25 0 -62 -33 -93 2 -93
106 0 58 3 73 15 73 12 0 15 -15 15 -79z m1110 -16 c0 -57 -4 -95 -10 -95 -6
0 -10 38 -10 95 0 57 4 95 10 95 6 0 10 -38 10 -95z m753 19 c13 -42 27 -73
30 -68 2 5 13 37 22 72 17 58 30 81 41 69 3 -3 -7 -46 -22 -96 -37 -121 -51
-122 -88 -3 -29 97 -30 102 -16 102 5 0 20 -34 33 -76z m-443 -94 c0 -11 -7
-20 -15 -20 -8 0 -15 9 -15 20 0 11 7 20 15 20 8 0 15 -9 15 -20z"/>
<path d="M250 2090 l0 -220 25 0 25 0 0 105 0 105 80 0 c79 0 80 0 80 25 0 25
-1 25 -80 25 l-80 0 0 65 0 65 105 0 105 0 0 25 0 25 -130 0 -130 0 0 -220z"/>
<path d="M1030 2241 l0 -69 -45 17 c-43 15 -47 15 -82 -4 -54 -30 -76 -66 -81
-134 -8 -112 39 -181 124 -181 25 0 54 5 64 10 13 7 21 7 25 0 3 -5 15 -10 26
-10 18 0 19 9 19 220 l0 220 -25 0 c-24 0 -25 -2 -25 -69z m-29 -108 c28 -17
29 -19 29 -99 0 -77 -2 -84 -26 -103 -64 -51 -134 3 -134 103 0 97 59 141 131
99z"/>
<path d="M2002 2093 c3 -218 3 -218 26 -221 l22 -3 0 220 0 221 -25 0 -25 0 2
-217z"/>
<path d="M585 2191 c-53 -23 -85 -85 -85 -163 0 -62 24 -115 64 -139 58 -35
160 -18 187 32 9 17 8 23 -2 30 -20 12 -24 11 -43 -10 -40 -44 -114 -34 -141
18 -30 58 -25 61 86 61 l101 0 -4 56 c-4 45 -10 61 -35 85 -32 33 -91 46 -128
30z m81 -49 c13 -8 34 -46 34 -61 0 -7 -29 -11 -75 -11 -41 0 -75 2 -75 5 0
14 31 64 42 68 20 8 62 8 74 -1z"/>
<path d="M1233 2185 c-93 -40 -109 -213 -27 -285 29 -25 43 -30 89 -30 43 0
59 5 84 26 17 14 31 32 31 40 0 21 -31 30 -44 12 -15 -20 -50 -38 -75 -38 -29
0 -70 40 -80 78 l-10 32 106 0 106 0 -6 51 c-8 64 -28 96 -72 115 -42 17 -61
17 -102 -1z m87 -45 c10 -5 23 -23 28 -40 l11 -30 -75 0 c-82 0 -90 8 -53 54
21 27 56 34 89 16z"/>
<path d="M1590 2193 c-8 -3 -25 -15 -37 -26 l-23 -20 0 22 c0 18 -5 22 -27 19
l-28 -3 0 -155 0 -155 28 -3 27 -3 0 98 c0 115 18 159 70 170 25 4 30 10 30
34 0 29 -9 33 -40 22z"/>
<path d="M1740 2189 c-27 -11 -70 -48 -70 -60 0 -19 42 -19 66 0 29 23 83 28
102 9 7 -7 12 -22 12 -34 0 -17 -8 -23 -41 -28 -80 -13 -135 -52 -145 -101 -7
-37 15 -89 41 -99 32 -12 91 -6 123 14 32 20 32 20 32 0 0 -15 7 -20 25 -20
l25 0 -1 113 c-2 138 -7 165 -40 189 -31 23 -94 32 -129 17z m88 -251 c-39
-30 -79 -34 -99 -9 -33 40 5 84 86 101 29 6 30 5 33 -34 3 -32 -1 -43 -20 -58z"/>
<path d="M279 1757 c-58 -39 -74 -98 -44 -157 11 -22 39 -41 109 -74 98 -47
117 -67 96 -106 -27 -50 -114 -34 -148 26 -8 14 -12 14 -45 0 -21 -8 -37 -19
-37 -25 0 -16 51 -71 81 -86 36 -19 142 -19 178 -1 41 22 65 64 65 116 1 69
-20 93 -129 145 -83 39 -95 48 -95 70 0 18 7 28 26 35 39 15 53 12 85 -19 27
-27 32 -29 66 -19 21 5 40 12 42 14 10 9 -55 78 -85 90 -52 22 -125 18 -165
-9z"/>
<path d="M1337 1774 c-4 -4 -7 -38 -7 -75 l0 -67 -31 15 c-81 40 -172 -40
-172 -152 0 -109 48 -175 127 -175 23 0 51 7 63 15 19 13 22 13 27 0 3 -9 19
-15 41 -15 l35 0 -2 228 -3 227 -35 3 c-20 2 -39 0 -43 -4z m-33 -194 c25 -9
26 -13 26 -88 0 -47 -5 -83 -12 -90 -17 -17 -64 -15 -82 4 -36 35 -33 136 4
166 26 21 30 21 64 8z"/>
<path d="M600 1705 c0 -48 -2 -55 -20 -55 -16 0 -20 -7 -20 -35 0 -28 4 -35
20 -35 19 0 20 -7 20 -110 0 -136 9 -150 95 -150 l55 0 0 34 c0 32 -3 35 -32
38 l-33 3 -3 93 -3 92 36 0 c33 0 35 2 35 35 0 33 -2 35 -35 35 l-35 0 0 55 0
55 -40 0 -40 0 0 -55z"/>
<path d="M2170 1705 c0 -52 -1 -55 -25 -55 -22 0 -25 -4 -25 -35 0 -31 3 -35
25 -35 l25 0 0 -113 c0 -136 7 -147 88 -147 l52 0 0 35 c0 32 -2 35 -30 35
l-30 0 0 95 0 95 30 0 c28 0 30 3 30 35 0 32 -2 35 -30 35 -30 0 -30 1 -30 55
l0 55 -40 0 -40 0 0 -55z"/>
<path d="M1550 1643 c-73 -38 -102 -161 -59 -250 28 -58 65 -76 141 -71 50 4
64 9 90 35 l31 31 -32 16 c-28 15 -34 15 -53 1 -24 -16 -65 -20 -86 -7 -7 5
-16 23 -21 40 l-10 32 100 0 99 0 0 33 c-1 44 -33 112 -64 132 -39 26 -95 29
-136 8z m104 -75 c24 -34 20 -38 -39 -38 -46 0 -55 3 -55 18 0 45 67 59 94 20z"/>
<path d="M1917 1640 c-31 -17 -37 -17 -37 -5 0 10 -11 15 -35 15 l-35 0 0
-165 0 -165 40 0 39 0 3 122 3 123 28 13 c15 7 36 10 47 7 19 -6 20 -15 20
-136 l0 -129 45 0 45 0 0 126 c0 139 -12 183 -56 203 -36 16 -64 14 -107 -9z"/>
<path d="M802 1511 c3 -132 4 -141 27 -165 19 -21 34 -26 71 -26 25 0 55 7 67
15 19 13 22 13 27 0 3 -9 19 -15 41 -15 l35 0 0 165 0 165 -40 0 -40 0 0 -118
c0 -114 -1 -119 -24 -131 -12 -7 -34 -11 -47 -9 -24 3 -24 4 -27 131 l-3 127
-45 0 -46 0 4 -139z"/>
<path d="M317 1213 c-5 -9 -127 -428 -127 -437 0 -3 20 -6 44 -6 l45 0 13 48
14 47 66 3 66 3 12 -51 12 -50 44 0 c24 0 44 3 44 8 0 4 -27 105 -61 225 l-61
217 -54 0 c-29 0 -55 -3 -57 -7z m60 -271 c-21 -2 -42 -1 -45 2 -3 3 0 23 6
43 6 21 16 58 23 83 l12 45 22 -85 21 -85 -39 -3z"/>
<path d="M602 1183 c3 -36 5 -38 41 -41 l37 -3 0 40 0 41 -41 0 -40 0 3 -37z"/>
<path d="M950 1144 l0 -75 -22 15 c-28 20 -71 20 -107 2 -88 -46 -102 -207
-26 -283 27 -27 41 -33 77 -33 24 0 54 7 66 16 20 14 22 14 22 0 0 -12 10 -16
35 -16 l35 0 0 225 0 225 -40 0 -40 0 0 -76z m-19 -124 c16 -9 19 -22 19 -84
0 -81 -10 -98 -56 -98 -35 0 -55 22 -61 70 -12 93 34 146 98 112z"/>
<path d="M607 1094 c-4 -4 -7 -79 -7 -166 l0 -158 40 0 40 0 -2 163 -3 162
-30 3 c-17 2 -34 0 -38 -4z"/>
<path d="M710 320 c-39 -39 -16 -140 33 -140 7 0 23 7 35 16 18 12 22 25 22
64 0 39 -4 52 -22 64 -30 21 -44 20 -68 -4z"/>
<path d="M1451 410 c-1 -3 -10 -35 -20 -73 l-20 -67 40 0 c31 0 39 4 38 18 0
17 -36 131 -38 122z"/>
<path d="M1721 321 c-39 -39 -18 -141 27 -141 10 0 28 7 40 16 18 12 22 25 22
63 0 50 -9 64 -47 75 -15 5 -28 1 -42 -13z"/>
<path d="M907 322 c-31 -35 -22 -52 28 -52 53 0 68 19 40 50 -23 25 -47 25
-68 2z"/>
<path d="M2018 329 c-21 -12 -24 -49 -6 -67 22 -22 67 -14 80 13 9 21 8 28 -7
45 -20 22 -41 25 -67 9z"/>
<path d="M1999 154 c-11 -14 -10 -18 6 -30 39 -29 116 -6 102 30 -9 22 -89 22
-108 0z"/>
<path d="M2197 322 c-24 -26 -23 -104 1 -125 25 -23 45 -21 68 4 38 42 13 139
-36 139 -9 0 -24 -8 -33 -18z"/>
</g>
</svg>
